{"title":"Zombies and Demons - Samurai Sword Apocalypse (2009) DVDRip","uid":8393484,"size":1162363261,"categoryP":"video","categoryS":"movies","magnet":"?xt=urn:btih:6f52cfa21315033715a5b7d00bdba38694c036f9&amp;dn=Zombies+and+Demons+-+Samurai+Sword+Apocalypse+%282009%29+DVDRip&amp;tr=udp%3A%2F%2Ftracker.openbittorrent.com%3A80&amp;tr=udp%3A%2F%2Fopen.demonii.com%3A1337&amp;tr=udp%3A%2F%2Ftracker.coppersurfer.tk%3A6969&amp;tr=udp%3A%2F%2Fexodus.desync.com%3A6969","seeders":0,"leechers":1,"uploader":"RadioResearch","files":3,"time":1366500029,"description":"*******************************************************************************\n          Zombies and Demons - Samurai Sword Apocalypse (2009) DVDRip\n*******************************************************************************\n\n-------------------------------------------------------------------------------\n                              General Information\n-------------------------------------------------------------------------------\nType.................: Movie\n\n\n\nVideo Format.........: AVI\nVideo Bitrate........: 2138\nResolution...........: 852 x 480\nColor................: 8 bit\nFPS..................: 23.976\nSource...............: DVD 16x9\nOriginal Format......: NTSC\nGenre................: Action / Drama / Horror\nIMDb Rating..........: 5.0\nMovie Information....: http://www.imdb.com/title/tt1316078/\n\n-------------------------------------------------------------------------------\n                               Post Information\n-------------------------------------------------------------------------------\nPosted by............: RadioResearch\nPosted on............: 4/20/2013\n\n-------------------------------------------------------------------------------\n                                 Release Notes\n-------------------------------------------------------------------------------\nSEEDBOX SUPPORTED!!\n\nORIGINAL TITLE:  THE SKY HAS FALLEN\n\nWithin a couple of hours, a new disease wipes out almost all of mankind. Trying \nto avoid infection, people flee to remote locations, but they start seeing \nmysterious black figures, carrying away the dead and experimenting on them. Now, \nLance and Rachel, two survivors determined to fight back, must kill the leader \nof these creatures before the rest of humanity disappears.\n\nWell, alright then!  No idea why this was re-released under the new name, but \nthe new name is not even listed on IMDB.  No worries, I tracked down the \noriginal data. :-)  It appears to have won a lot of awards, and I haven't even \nwatched it yet.\n\n\nEnjoy!\n\nRadioResearch\n\nGeneral\nComplete name                            : G:Zombies and Demons - Samurai Sword \nApocalypse (2009) DVDRipTitle 10.avi\nFormat                                   : AVI\nFormat/Info                              : Audio Video Interleave\nFormat profile                           : OpenDML\nFile size                                : 1.08 GiB\nDuration                                 : 1h 12mn\nOverall bit rate mode                    : Variable\nOverall bit rate                         : 2 138 Kbps\nWriting application                      : Lavf51.12.1\n\nVideo\nID                                       : 0\nFormat                                   : AVC\nFormat/Info                              : Advanced Video Codec\nFormat profile                           : &lt;a class=&quot;__cf_email__&quot; href=&quot;/cdn-cgi/l/email-protection&quot; data-cfemail=&quot;084a697b6d6461666d48443b2638&quot;&gt;[email&amp;#160;protected]&lt;/a&gt;&lt;script cf-hash='f9e31' type=&quot;text/javascript&quot;&gt;\n/* &lt;![CDATA[ */!function(){try{var t=&quot;currentScript&quot;in document?document.currentScript:function(){for(var t=document.getElementsByTagName(&quot;script&quot;),e=t.length;e--;)if(t[e].getAttribute(&quot;cf-hash&quot;))return t[e]}();if(t&amp;&amp;t.previousSibling){var e,r,n,i,c=t.previousSibling,a=c.getAttribute(&quot;data-cfemail&quot;);if(a){for(e=&quot;&quot;,r=parseInt(a.substr(0,2),16),n=2;a.length-n;n+=2)i=parseInt(a.substr(n,2),16)^r,e+=String.fromCharCode(i);e=document.createTextNode(e),c.parentNode.replaceChild(e,c)}}}catch(u){}}();/* ]]&gt; */&lt;/script&gt;\nFormat settings, CABAC                   : No\nFormat settings, ReFrames                : 1 frame\nFormat settings, GOP                     : M=1, N=12\nCodec ID                                 : H264\nDuration                                 : 1h 12mn\nBit rate mode                            : Variable\nBit rate                                 : 1 994 Kbps\nMaximum bit rate                         : 3 000 Kbps\nWidth                                    : 852 pixels\nHeight                                   : 480 pixels\nDisplay aspect ratio                     : 16:9\nFrame rate                               : 23.976 fps\nOriginal frame rate                      : 24.000 fps\nColor space                              : YUV\nChroma subsampling                       : 4:2:0\nBit depth                                : 8 bits\nScan type                                : Progressive\nBits/(Pixel*Frame)                       : 0.203\nStream size                              : 1.01 GiB (93%)\n\nAudio\nID                                       : 1\nFormat                                   : MPEG Audio\nFormat version                           : Version 1\nFormat profile                           : Layer 3\nMode                                     : Joint stereo\nMode extension                           : MS Stereo\nCodec ID                                 : 55\nCodec ID/Hint                            : MP3\nDuration                                 : 1h 12mn\nBit rate mode                            : Constant\nBit rate                                 : 128 Kbps\nChannel(s)                               : 2 channels\nSampling rate                            : 44.1 KHz\nCompression mode                         : Lossy\nStream size                              : 66.4 MiB (6%)\nAlignment                                : Aligned on interleaves\nInterleave, duration                     : 26 ms (0.63 video frame)\nInterleave, preload duration             : 26 ms\nWriting library                          : LAME3.97\n\n\n\n\n-------------------------------------------------------------------------------\nGenerated with Cool NFO Creator - http://fly.to/coolbeans\n-------------------------------------------------------------------------------\n","torrent":{"xt":"urn:btih:6f52cfa21315033715a5b7d00bdba38694c036f9","amp;dn":"Zombies+and+Demons+-+Samurai+Sword+Apocalypse+%282009%29+DVDRip","amp;tr":["udp%3A%2F%2Ftracker.openbittorrent.com%3A80","udp%3A%2F%2Fopen.demonii.com%3A1337","udp%3A%2F%2Ftracker.coppersurfer.tk%3A6969","udp%3A%2F%2Fexodus.desync.com%3A6969"],"infoHash":"6f52cfa21315033715a5b7d00bdba38694c036f9","infoHashBuffer":{"type":"Buffer","data":[111,82,207,162,19,21,3,55,21,165,183,208,11,219,163,134,148,192,54,249]},"announce":[],"urlList":[]}}